<?xml version="1.0" encoding="utf-8"?>
<!-- Generator: Adobe Illustrator 16.0.0, SVG Export Plug-In . SVG Version: 6.00 Build 0)  -->
<!DOCTYPE svg PUBLIC "-//W3C//DTD SVG 1.1//EN" "http://www.w3.org/Graphics/SVG/1.1/DTD/svg11.dtd">
<svg version="1.1" id="Calque_1" xmlns="http://www.w3.org/2000/svg" xmlns:xlink="http://www.w3.org/1999/xlink" x="0px" y="0px"
	 width="318.461px" height="313.846px" viewBox="0 0 318.461 313.846" enable-background="new 0 0 318.461 313.846"
	 xml:space="preserve">
<g>
	<linearGradient id="SVGID_1_" gradientUnits="userSpaceOnUse" x1="53.6021" y1="264.9526" x2="269.4765" y2="49.0782">
		<stop  offset="0.2" style="stop-color:#343434"/>
		<stop  offset="1" style="stop-color:#009688"/>
	</linearGradient>
	<circle fill="url(#SVGID_1_)" cx="161.539" cy="157.015" r="152.646"/>
	<path fill="#FFFFFF" d="M279.594,175.833c-0.399-0.027-34.212-2.369-58.198-6.344c-6.26-25.731-9.717-54.228-9.56-81.519
		c0.023-4.035-3.048-7.416-7.067-7.778c-4.021-0.364-7.646,2.415-8.345,6.389c-3.925,22.324-12.263,47.136-21.888,70.724
		c-5.767-1.808-11.478-3.65-17.12-5.475c-2.363-0.765-4.706-1.522-7.032-2.27c13.057-41.622,16.89-87.17,17.13-90.175
		c0.275-3.417-1.724-6.608-4.915-7.855c-3.195-1.247-6.826-0.252-8.939,2.447c-0.134,0.172-13.648,17.142-31.704,14.258
		c-4.229-0.676-8.216,2.208-8.892,6.443c-0.677,4.235,2.208,8.216,6.443,8.893c12.113,1.934,22.544-1.702,30.43-6.39
		c-2.575,19.185-7.214,44.652-14.409,67.722c-34.652-10.459-63.228-15.275-76.33,6.609c-11.733,19.598-8.235,47.932,7.64,61.872
		c6.021,5.287,13.092,7.91,20.661,7.91c9.157-0.001,19.042-3.842,28.668-11.453c12.34-9.758,21.85-26.614,29.13-45.604
		c2.421,0.777,4.869,1.57,7.339,2.369c5.216,1.688,10.494,3.389,15.824,5.068c-19.943,45.631-42.428,83.386-42.789,83.989
		c-2.204,3.68-1.009,8.447,2.669,10.651c1.25,0.749,2.625,1.106,3.984,1.106c2.639,0,5.212-1.346,6.667-3.774
		c1.516-2.529,24.362-40.882,44.504-87.389c7.422,2.173,14.956,4.232,22.635,6.057c0.884,0.21,1.803,0.416,2.746,0.619
		c4.248,15.339,9.461,29.56,15.478,41.833c1.888,3.849,6.537,5.442,10.391,3.554c3.851-1.887,5.441-6.539,3.554-10.39
		c-4.683-9.552-8.851-20.376-12.416-32.034c23.538,3.414,51.145,5.326,52.653,5.43c4.279,0.298,7.983-2.939,8.275-7.218
		C287.105,179.831,283.874,176.125,279.594,175.833z M106.537,197.659c-8.179,6.467-19.926,12.42-29.45,4.057
		c-9.233-8.108-13.146-27.889-4.563-42.227c3.388-5.66,9.789-7.916,18.359-7.916c10.464,0,24.163,3.364,39.563,8.01
		C124.095,176.045,116.197,190.02,106.537,197.659z M189.533,161.847c3.489-8.638,6.812-17.451,9.825-26.275
		c1.354,10.313,3.137,20.504,5.309,30.382C199.582,164.67,194.534,163.295,189.533,161.847z"/>
	<path fill="none" stroke="#FFFFFF" stroke-width="15" stroke-linecap="round" stroke-linejoin="round" stroke-miterlimit="10" d="
		M161.539,50.231"/>
</g>
</svg>
